<?xml version="1.0" encoding="UTF-8"?>
<svg id="uuid-0ca63804-201f-4077-a3e8-90ec8362e786" data-name="Слой 1" xmlns="http://www.w3.org/2000/svg" viewBox="0 0 310.58 241.56">
  <g id="uuid-719ba380-e9a3-4872-9bb0-738c449a9695" data-name="SvgjsG3702">
    <path d="m224.26,138.23c.26-3.42.66-7.24.81-10.79.27-3.06.08-6.15-.57-9.16-.34-1.09-.59-2.21-.77-3.34v-.05s0-.17,0-.17l.03-.52.14-.74c.03-.15.32-1.22.25-1.01.2-.64.44-1.27.69-1.9l.46-1.08.1-.23.1-.21c.75-1.59,1.57-3.13,2.38-4.68,1.79-3.34,3.22-6.87,4.26-10.51.92-2.64,1.06-5.49.42-8.21-1.43-4.03-6.01-.71-8.8,1.89-2.38,2.25-4.62,4.65-6.7,7.17,2.22-4.97,3.95-10.15,5.16-15.46.54-2.38.75-4.81.62-7.25-.15-2.02-.66-3.99-1.49-5.83-1.26-3.99-5.52-6.19-9.5-4.93-.63.2-1.23.48-1.78.83-.26-1.29-.61-2.56-1.04-3.81-.94-3.98-4.29-6.92-8.35-7.34-2.79.02-5.52.8-7.89,2.26-.07-10.11-1.42-20.93-7.5-24.54-3.74-1.63-8.02-1.41-11.58.58-2.04-4.17-5.09-6.85-9.55-5.91-.97.21-1.92.53-2.82.94l-.04-.34c-.35-4.8-1.76-9.46-4.13-13.65-1.97-3.59-6.35-5.09-10.1-3.46-2.46,1.03-4.71,2.48-6.66,4.29-.66-2.27-1.65-4.44-2.96-6.41-1.6-2.66-4.39-4.4-7.49-4.66-3.84.23-7.48,1.77-10.31,4.37-8.83,8.13-15.78,18.09-20.35,29.18-2.77,5.78-5.47,11.75-7.79,17.77-2.88,7.53-5.34,15.2-7.38,23-3.37,12.36-5.48,25.02-6.29,37.8-.32,4.82-.11,9.66.63,14.44.34,2.02.92,3.99,1.72,5.87.2.49.46.95.77,1.38-.31-.4.05.1.09.16l.54.78c.45.63.97,1.19,1.57,1.68,3,2.11,6.95,2.29,10.14.46,4.07-2.15,7.66-5.12,10.52-8.73,2.87-3.4,5.41-7.06,7.61-10.94,2.23-2.75,4.39-5.64,6.47-8.66-.99,3.92-1.97,7.84-2.96,11.76-1.13,4.45-2.18,8.92-2.87,13.35-.98,4.48-.92,9.13.18,13.58.44,1.57,1.65,2.8,3.22,3.25,2.21.1,4.38-.66,6.04-2.12,2.73-2.05,5.21-4.43,7.37-7.08.62,1.29,1.71,2.3,3.04,2.82,3.11,1.11,7.11-1.27,10.51-4.19,1.13-.97,2.23-2.01,3.31-3.12-.26,1.51-.4,3.05-.41,4.58-.22,2.2.5,4.39,1.97,6.04,1.93,1.25,4.44,1.12,6.25-.31,3.87-2.8,7.24-6.22,9.99-10.13,1.77-2.3,3.5-4.7,5.17-7.18-.17,1.26.03,2.54.58,3.69.85,1.4,2.67,1.85,4.07,1,.08-.05.15-.1.23-.15,1.69-.96,3.27-2.1,4.71-3.41,2.06-1.75,4.11-3.56,6.12-5.54,4.83-4.84,9.14-10.17,12.86-15.9,3.79-5.61,6.96-11.62,9.45-17.92,2.11-5.71,3.44-11.67,3.95-17.73.16-1.77.22-3.55.17-5.32l.44-.19.32-.12.51-.14c.46-.09.93-.13,1.4-.11h.12s.6.17.6.17l.58.23.23.12c.38.27.72.58,1.03.93l.44.54.29.48c.32.55.59,1.12.83,1.7l.38,1.03c-.22-.61,0,.05.03.16l.17.88.06.43c-.03-.23.02.33.02.44.01.5,0,1.01-.03,1.53l-.06.8h0s-.03.23-.03.23c-.09.66-.21,1.32-.34,1.99l-.39,1.76-.23.9-.16.59c-.36,1.25-.77,2.49-1.22,3.72-1.07,2.95-2.31,5.85-3.62,8.69l-.25.54-.51,1.08-.99,2.05c-.73,1.51-1.48,2.99-2.31,4.43-2.01,3.45-4.22,6.78-6.61,9.97-2.54,3.51-5.08,7.03-7.43,10.81-.87,1.38-1.07,3.08-.54,4.63.73,1.52,2.24,1.12,3.57-.28,4.68-5.1,9.05-10.49,13.08-16.13,3.96-5.33,7.88-10.83,12.15-15.56l1.1-1.19.55-.58.24-.24c.72-.72,1.46-1.4,2.2-2.03l1-.78.11-.08c-.12.65-.28,1.31-.45,1.97l-.05.2-.1.31-.37,1.1c-.26.74-.57,1.47-.89,2.19l-.06.14-.15.31-.54,1.08-1.3,2.52c-1.74,3.07-3.19,6.3-4.32,9.64-.62,1.89-.98,3.85-1.07,5.84,0,1.47.2,2.94.6,4.36l.42,1.56.17.68.1.29v.14c.13,1.7.2,3.42.2,5.19,0,3.6-.16,7.33-.44,11.04-.14,1.93,1.16,2.89,2.43,2.3,1.57-1.02,2.53-2.75,2.56-4.62Zm-28.17-78.65h.03s.09-.03.09-.03l.83-.17,1.21-.13c.2-.01.39,0,.58,0l.35.02c.59.11,1.15.3,1.68.57l.3.19.44.38c.3.28.57.59.82.92l.02.02.06.1.35.59c.27.48.51.98.73,1.49l.41,1.07.15.5.19.77.05.21c-3.14,2.96-6.02,6.18-8.59,9.64-2.7,3.5-5.27,7.23-7.74,11.11,1.63-5.47,2.85-11.05,3.63-16.7.39-3.03.68-6.03.85-9,.73-.4,1.48-.75,2.24-1.07l1.31-.48Zm-17.27-24.02c.23,0,.46,0,.68.01l.39.04c.44.08.87.19,1.29.33l.95.42.37.24.43.36.72.77.19.24c-.19-.25.19.29.27.42.43.74.8,1.51,1.1,2.3l.24.65.12.36.39,1.46c.52,2.28.88,4.59,1.07,6.92l.04.46.05.74.09,1.86c.05,1.19.06,2.4.06,3.61-3.56,2.76-6.85,5.85-9.83,9.23l-.88.99c.51-3.09.84-6.2.99-9.32.25-5.36.04-10.74-.61-16.07-.23-1.89-.55-3.77-.97-5.62.94-.23,1.9-.36,2.87-.39h0Zm-16.88-4.25l.55-.2.11-.02,1.13-.17h.85s.97.26.97.26l.76.36.68.57.57.59c-1.95,1.4-3.79,2.96-5.49,4.66,0-2.03-.06-4.05-.16-6.03h.04Zm-17.35,72.42c-.6,1.53-1.23,3.05-1.87,4.57l-.99,2.3-.51,1.15-.35.76-.09.18c-1.48,3.18-3.07,6.29-4.75,9.3-.8,1.44-1.64,2.84-2.49,4.22l-.94,1.49c.02-.96.08-1.93.14-2.89l.14-1.72.08-.88.04-.42c.14-1.22.3-2.45.48-3.68.71-4.91,1.69-9.89,2.84-14.85.47-2.02.97-4.03,1.51-6.04l.21-.75.33-1.11c.44-1.5.91-2.99,1.39-4.48,1.99-6.2,4.28-12.34,6.82-18.33.63-1.49,1.28-2.96,1.95-4.42l.12-.26.08-.18.51-1.09,1.22-2.51c1.44-2.91,2.98-5.76,4.6-8.52l1.19-1.98-.08.89c-.28,3.05-.68,6.22-1.19,9.67s-1.14,6.91-1.84,10.39c-1.34,6.67-3.06,13.26-5.15,19.74-1.03,3.19-2.19,6.33-3.41,9.45Zm-1.1-87.66l.98-.7.41-.25.81-.44,1.19-.54.28-.1.38-.11,1.1-.14h.49l.3.06c.38.09.75.23,1.1.4l.33.18.28.21c.32.26.62.54.9.84l.42.49.21.27.05.07c.52.83.97,1.7,1.34,2.61l.56,1.49.05.13.06.18.3,1.09c.48,1.88.85,3.78,1.1,5.7-5.15,4.59-9.61,9.89-13.26,15.74l-.74,1.14c.55-5.29.75-10.62.6-15.94-.08-3.7-.39-7.38-.93-11.04.57-.48,1.13-.94,1.71-1.37Zm-18.03,65.43c-1.2,3.65-2.3,7.32-3.35,10.99l-1.27,2.27c-.6-.63-1.79-.3-2.44,1.37-.96,2.51-2.01,5.01-3.13,7.48l-1.3,1.84c-1.91,2.65-3.89,5.17-5.93,7.57-.99,1.17-1.99,2.3-3,3.4l-1.53,1.64-.77.8-.39.39-.26.26c-2.02,2.02-4.08,3.92-6.14,5.8-.91.84-1.86,1.62-2.85,2.35l-.4.26-.5.27-.64.28-.31.04h-.18s-.36-.17-.36-.17c.45.22.33.14.17.02l-.21-.32-.07-.18-.12-.36c.19.6.04.1-.01-.1l-.22-1.24-.02-.2v-.21c-.03-.42-.02-.84-.01-1.27l.07-1.36.02-.22.07-.65c.31-2.26.76-4.5,1.33-6.71l.45-1.72.14-.51.12-.43c.37-1.29.77-2.58,1.18-3.86,2.89-9.01,6.66-17.63,10.02-26.46,2.63-6.9,5.37-13.76,8.36-20.49,2.88-6.51,6.12-12.85,9.71-19,2.9-4.87,6.1-9.54,9.6-14,1.57-2.05,3.18-4.04,4.83-5.93l.87-.98c.2,1.39.36,2.81.48,4.26l.04.49.05.82.08,1.65c.05,1.2.08,2.42.09,3.64.02,2.33-.04,4.7-.17,7.09-.06,1.12-.14,2.24-.22,3.36l-.14,1.66-.08.82-.05.44c-.24,2.12-.54,4.26-.92,6.41-.2,1.13-.41,2.26-.65,3.4-3.93,8.18-7.28,16.62-10.04,25.27h0Zm-41.84,45.19l-.17-.5c.1.3-.08-.3-.1-.36l-.34-1.37c-.23-1.03-.4-2.12-.53-3.23l-.14-1.38-.04-.54-.05-.83c-.06-1.22-.08-2.47-.08-3.72.01-2.44.14-4.93.35-7.45l.16-1.8.09-.9.05-.52c.13-1.19.28-2.38.45-3.58.4-2.95.88-5.92,1.41-8.88,1.32-7.51,3.05-14.95,5.19-22.27,2.11-7.27,4.65-14.41,7.62-21.38,2.56-5.96,4.65-10.61,7.6-16.33,1.45-2.8,2.98-5.54,4.59-8.18l1.16-1.84.59-.9.4-.58c.81-1.18,1.65-2.31,2.52-3.4.81-1.03,1.66-2,2.52-2.92l.42-.44.49-.47,1.59-1.43c.85-.74,1.74-1.43,2.67-2.08l.42-.29.41-.24,1.39-.74,1.14-.48.55-.19h0l.08-.02c.71-.18,1.44-.26,2.18-.26l.41.02h.06s.88.22.88.22l.83.32.4.2.1.05.03.02c.52.36.99.77,1.42,1.23l.64.76.18.23c-.17-.23.18.27.25.38.85,1.41,1.54,2.91,2.04,4.48l.1.3.08.27c-3.35,3.62-6.48,7.44-9.37,11.44-4.07,5.49-7.77,11.24-11.08,17.21-3.63,6.6-6.87,13.57-9.89,20.6-1.46,3.4-2.86,6.83-4.23,10.27-1.21,3.05-2.33,6.16-3.59,9.2-1.59,3.84-3.17,7.68-4.67,11.56-1.86,4.83-3.6,9.72-5.06,14.66-1.57,4.94-2.62,10.02-3.15,15.17-.08,1-.1,2-.06,3.01-.35-.68-.65-1.38-.91-2.11h0Zm40.6,11.57l-.05.05-.09.08-.6.59-1.44,1.31-1.24,1.01-.61.45-.28.19-.98.51-.19.08-.51.12h-.21s-.16-.04-.16-.04h0l-.25-.25-.19-.21-.33-.77-.13-.65-.11-.94c-.03-.83,0-1.7.04-2.57l.12-1.54v-.06s.1-.78.1-.78c.15-1.2.36-2.41.58-3.62.77-4.28,1.84-8.58,2.93-12.86,1.52-6.02,2.94-12.04,4.55-18.06.44-1.66.89-3.31,1.35-4.97l.24-.87.37-1.3.04-.15c5.52-10.71,9.7-22.07,12.45-33.8,1.51-3.08,3.14-6.04,4.85-8.94.58-.97,1.17-1.92,1.77-2.86l.8-1.21.27-.4.7-.99c1.51-2.12,3.08-4.13,4.73-6.02l1.2-1.34.61-.65.33-.34c.62-.61,1.24-1.19,1.87-1.74l.06,1.58c.07,2.36.07,4.76.02,7.19-2.64,3.64-5.04,7.45-7.19,11.4-3.29,6.03-6.24,12.26-8.81,18.63-4.24,10.25-7.62,20.84-10.1,31.65-1.14,5.02-2.08,10.05-2.75,15.01-.76,4.89-1.01,9.85-.74,14.79l-.86,1c-.7.8-1.4,1.56-2.12,2.3h0Zm21.16-9.21l-1.15,1.28-.59.62-.27.28-.07.07c-.78.78-1.59,1.51-2.39,2.2l-1.19.95-.59.43-.57.39c-.62.37-1.27.69-1.95.95l-.26.09-.26.05-.83.07-.68-.17-.16-.07-.2-.14-.55-.58c.14.17.04-.02-.09-.25,7.05-10.46,12.72-21.78,16.88-33.69,4.83-13.32,8.18-27.12,9.99-41.17.66-4.9,1.13-9.79,1.39-14.6l.21-.26,1.23-1.37.42-.44.68-.66c.93-.89,1.88-1.69,2.84-2.44l1.49-1.11.76-.52.22-.14.35-.21.3-.18.17.65c.62,2.41,1.07,4.85,1.35,7.32l.2,1.87.06.69.05.63c.1,1.35.16,2.72.19,4.11.06,2.45.01,4.96-.13,7.5-.06,1.03-.14,2.07-.24,3.11l-.03.2-.15,1.07-.41,2.53c-.58,3.38-1.29,6.67-2.1,9.89l-.82,1.56c-3.52,6.77-6.81,13.75-9.96,20.78-3.28,7.32-6.39,14.8-9.02,22.41l-.72,2.16-1.19,1.52c-.72.9-1.45,1.76-2.19,2.61h0Zm2.16-.12v.05c.27-1.02.09-.34,0-.05h0Zm27.06-20l-.35.75-.41.88-1.07,2.21c-.76,1.54-1.55,3.07-2.36,4.57-.93,1.72-1.98,3.35-3.02,4.96l-1.65,2.49-.32.47-.52.75-1.25,1.77c-1.52,2.12-3.09,4.18-4.71,6.13-.74.89-1.49,1.75-2.26,2.58l-.55.58-.06.07-1.21,1.13-1,.83-.7.48-.55.27-.24.1-.83.1-.25-.09-.12-.12-.09-.2-.09-.49v-.1s-.02-.42-.02-.42c0-.46.03-.94.07-1.43l.14-.95c.21-1.34.51-2.69.85-4.04l.27-1.06.18-.63.61-2.01.51-1.6c2.61-3.91,4.96-7.98,7.05-12.18,5.25-10.54,9.46-21.56,12.58-32.91.99-1.88,2.01-3.75,3.1-5.54l.38-.61.61-.78c1.47-1.87,3.01-3.59,4.57-5.22l.35-.36.42-.42,1.29-1.24c.96-.9,1.93-1.75,2.91-2.56l.11-.09v.13c-.1,1.21-.2,2.42-.33,3.63l-.03.3-.08.7-.25,1.94c-.35,2.53-.83,5.08-1.41,7.64-.36,1.59-.76,3.18-1.19,4.77l-.29,1.06c.13-.48-.19.67-.2.7l-.86,2.86c-1.07,3.45-2.27,6.87-3.56,10.25-1.28,3.36-2.67,6.67-4.14,9.93Zm26.71-17.83l-.62,1.48c-.12.22-.22.44-.32.67l-.55,1.12c-.8,1.61-1.65,3.19-2.52,4.75-.8,1.43-1.63,2.83-2.48,4.21l-1.29,2.04-.66,1-.19.29-.32.46c-1.84,2.65-3.82,5.2-5.93,7.64-1.87,2.2-3.89,4.27-6.06,6.17-1.76,1.58-3.55,3.15-5.35,4.54l-.29.22.22-.92.17-.64c-.1.39.15-.53.19-.66.26-.88.53-1.75.85-2.62.42-1.13.87-2.25,1.34-3.36l.81-1.87.45-.99.16-.36c.72-1.54,1.46-3.06,2.21-4.58,3.62-7.25,7.6-14.2,11.8-20.88l1.59-2.48.8-1.22.4-.6.11-.16c1.11-1.62,2.24-3.2,3.4-4.73.43-.56.83-1.1,1.24-1.71-.69,1.04.21-.16.4-.39l1.77-2.11,1.61-1.79.51-.53.3-.29c-.01,1.21-.08,2.44-.18,3.68l-.06.64c.03-.36-.05.44-.07.58l-.29,1.97c-.23,1.42-.52,2.85-.86,4.28l-.39,1.52-.17.61-.3.96c-.43,1.36-.91,2.71-1.44,4.04h0Zm26.31-.09v.03c-.14-.36-.06-.25,0-.03h0Z" fill="#3fc1c9"/>
  </g>
  <g id="uuid-153246f5-c6c9-4673-ad19-dd06535108dd" data-name="SvgjsG3703">
    <path d="m37.59,217.69l11.89,18.28c.27.43.41.9.44,1.44.03.53-.08,1.01-.32,1.44s-.59.77-1.04,1.04c-.45.27-.92.4-1.4.4h-7.18c-.48,0-.93-.12-1.36-.36-.43-.24-.74-.55-.96-.92l-11.97-19.08h-14.13v17.56c0,.74-.28,1.4-.84,1.96s-1.21.84-1.96.84H2.79c-.74,0-1.4-.28-1.96-.84s-.84-1.21-.84-1.96v-53c0-.74.28-1.4.84-1.96s1.21-.84,1.96-.84h25.38c6.12,0,11.08,1.74,14.89,5.23,3.8,3.49,5.71,8.21,5.71,14.17,0,3.83-.84,7.12-2.51,9.86s-4.14,4.8-7.38,6.19c-.21.11-.56.27-1.04.48l-.24.08Zm-26.02-24.74v15.72h15.56c4.58,0,7.69-1.3,9.34-3.91.53-.96.8-2.18.8-3.67,0-2.5-.82-4.47-2.47-5.91-1.81-1.49-4.26-2.23-7.34-2.23,0,0-15.88,0-15.88,0Zm94.82-11.25c.74,0,1.4.28,1.96.84.56.56.84,1.21.84,1.96v30.17c0,7.77-2.37,14.09-7.1,18.96-4.74,4.87-10.82,7.3-18.24,7.3s-13.5-2.43-18.24-7.3c-4.74-4.87-7.1-11.19-7.1-18.96v-30.17c0-.74.28-1.4.84-1.96s1.21-.84,1.96-.84h5.99c.74,0,1.4.28,1.96.84s.84,1.21.84,1.96v30.33c0,4.95,1.41,8.73,4.23,11.33,2.39,2.23,5.56,3.35,9.5,3.35s7.13-1.12,9.58-3.35c2.82-2.66,4.23-6.44,4.23-11.33v-30.33c0-.74.27-1.4.8-1.96.53-.56,1.17-.84,1.92-.84h6.07Zm51.16,34.16c.8,0,1.46.27,2,.8s.8,1.17.8,1.92v5.43c0,.74-.27,1.38-.8,1.92-.53.53-1.2.8-2,.8h-3.19v10.78c0,.74-.28,1.4-.84,1.96s-1.21.84-1.96.84h-5.99c-.74,0-1.4-.28-1.96-.84-.56-.56-.84-1.21-.84-1.96v-10.78h-22.51c-.74,0-1.4-.27-1.96-.8-.56-.53-.84-1.17-.84-1.92v-5.91c0-.53.16-1.04.48-1.52l22.27-33.6c.21-.37.53-.68.96-.92.43-.24.88-.36,1.36-.36h9.02c.74,0,1.4.28,1.96.84.56.56.84,1.21.84,1.96v31.37h3.19,0Zm-26.42,0h11.65v-17.24l-11.65,17.24Zm87.32-34.16c.74,0,1.4.28,1.96.84.56.56.84,1.21.84,1.96v53c0,.74-.28,1.4-.84,1.96s-1.21.84-1.96.84h-7.02c-.9,0-1.65-.37-2.23-1.12l-27.7-37.91v36.24c0,.74-.28,1.4-.84,1.96s-1.21.84-1.96.84h-5.99c-.74,0-1.4-.28-1.96-.84-.56-.56-.84-1.21-.84-1.96v-53c0-.74.28-1.4.84-1.96s1.21-.84,1.96-.84h6.94c.43,0,.85.09,1.28.28.43.19.74.47.96.84l27.78,37.75v-36.08c0-.74.27-1.4.8-1.96.53-.56,1.17-.84,1.92-.84h6.07,0Zm24.5,0c.74,0,1.4.28,1.96.84.56.56.84,1.21.84,1.96v53c0,.74-.28,1.4-.84,1.96s-1.21.84-1.96.84h-5.99c-.74,0-1.4-.28-1.96-.84-.56-.56-.84-1.21-.84-1.96v-53c0-.74.28-1.4.84-1.96s1.21-.84,1.96-.84h5.99Zm33.76,12.85c-2.18.9-3.96,2.18-5.35,3.83-2.98,3.3-4.47,7.72-4.47,13.25s1.49,9.98,4.47,13.33c3.09,3.46,7.66,5.19,13.73,5.19,3.19,0,6-.81,8.42-2.43,2.42-1.62,4.22-3.79,5.39-6.51.21-.53.55-.94,1-1.24.45-.29.97-.44,1.56-.44h6.31c.43,0,.85.09,1.28.28.43.19.74.47.96.84.59.85.72,1.7.4,2.55-1.97,5.59-5.21,9.98-9.74,13.17-4.84,3.46-10.48,5.19-16.92,5.19-8.57,0-15.54-2.95-20.91-8.86-5-5.64-7.5-12.66-7.5-21.07s2.5-15.43,7.5-21.07c5.37-5.91,12.35-8.86,20.91-8.86,6.44,0,12.08,1.73,16.92,5.19,4.47,3.19,7.72,7.58,9.74,13.17.32.9.19,1.76-.4,2.55-.21.37-.53.65-.96.84-.43.19-.85.28-1.28.28h-6.31c-.59,0-1.1-.15-1.56-.44-.45-.29-.78-.71-1-1.24-1.17-2.71-2.97-4.88-5.39-6.51-2.42-1.62-5.23-2.43-8.42-2.43-3.41,0-6.2.48-8.38,1.44h0Z" fill="#f5f5f5"/>
  </g>
</svg>